<?xml version="1.0" encoding="UTF-8"?>
<svg id="_横ロゴ" data-name="横ロゴ" xmlns="http://www.w3.org/2000/svg" viewBox="0 0 320 320">
  <defs>
    <style>
      .cls-1 {
        fill: #fff;
      }
    </style>
  </defs>
  <path class="cls-1" d="M202.88,81.68c-.34,0-16.02.2-34.45,8.74-18.41,8.52-39.56,25.42-50.86,58.85-23.98,70.99-41.19,77.43-55.43,77.82h-21.68c-3,0-5.45,2.44-5.45,5.45s2.44,5.42,5.45,5.42h65.95c.34,0,16.02-.17,34.45-8.72,18.44-8.55,39.58-25.44,50.89-58.85,23.98-71.01,41.17-77.43,55.43-77.82h21.68c3,0,5.45-2.44,5.45-5.45s-2.44-5.45-5.45-5.45h-65.98Z"/>
  <path class="cls-1" d="M275,163.51c0-22.3-9.85-43.28-27.03-57.57-2.6-2.17-6.47-1.81-8.63.79-2.17,2.6-1.81,6.47.79,8.63,14.37,11.95,22.61,29.5,22.61,48.14,0,34.49-28.06,62.54-62.54,62.54h-32.77c-3.39,0-6.13,2.74-6.13,6.13s2.74,6.13,6.13,6.13h32.77c41.25,0,74.81-33.56,74.81-74.81Z"/>
</svg>