<?xml version="1.0" encoding="UTF-8"?>
<svg id="_横ロゴ" data-name="横ロゴ" xmlns="http://www.w3.org/2000/svg" viewBox="0 0 320 70">
  <defs>
    <style>
      .cls-1 {
        fill: #fff;
      }
    </style>
  </defs>
  <path class="cls-1" d="M153.69,42.13c-.06.19-.06.32-.26.38q-.19.13-.13.38c0,.06,0,.19-.06.26-.13.06-.32.13-.45.26.13.13.13.19.06.26-.06.13-.06.26-.13.32l-.26.39c-.13.06-.38.13-.38.19.06.06.13.19.13.32v.38c0,.06-.06.13-.13.19-.06.06-.13.13-.13.26,0,.19-.06.26-.13.45-.19.32-.45.64-.58,1.09-.06.06-.19.06-.26.06-.19.06-.38.06-.45.26l-.77.58c-.13.13-.32.19-.51.19,0-.13.06-.13.19-.13.06,0,.19-.06.19-.13.06-.19.26-.26.26-.51h-.26c-.13.19-.32.26-.51.38l-.58.39c-.19.13-.38.26-.51.38-.06.06-.13.13-.13.19-.32,0-.38.06-.38.13-.13.13-.26.19-.38.26-.06.06-.19.13-.26.06-.19-.06-.26.06-.32.13l-.06.19c-.06.13-.13.19-.19.26-.32.26-.64.58-.9.83-.32.26-.64.51-.96.7-.19.06-.32.32-.51.45-.19.06-.38.26-.58.38-.06.06-.13.19-.26.13-.13,0-.19.06-.26.13-.45.06-.7.38-1.02.7-.19.13-.38.19-.58.19s-.38,0-.51.13l-.13.06c-.13.06-.32,0-.51.13l-.51.19c-.06,0-.13.06-.19.13-.13.13-.26.13-.51.13l-.7-.19c-.32,0-.58-.13-.83-.19-.19-.06-.38-.19-.64-.13-.13,0-.32-.13-.45-.19-.26-.13-.45-.26-.45-.64-.19-.06-.38-.19-.51-.32l-.19-.19c-.06,0-.13-.06-.13-.13-.06-.13-.13-.26-.26-.32l-.77-.7c0-.06,0-.13.06-.26-.13-.19-.32-.38-.32-.64-.38-.19-.45-.51-.58-.77-.06-.26-.19-.51-.38-.77l-.51-1.09v-.13c0-.19,0-.26-.06-.38-.13-.13-.13-.26-.13-.45l-.19-1.09-.19-1.02c-.13-.32-.26-.7-.19-1.03-.13-.32-.13-.64-.19-.9-.13-.26-.19-.58-.32-.83l-.19-.51-1.6.19c0-.13-.06-.19-.13-.32-.13-.06-.26-.13-.38-.06-.32.13-.51,0-.7-.13-.13-.13-.26-.19-.45-.19-.26,0-.45-.13-.64-.26-.06-.32-.13-.64-.51-.7-.19.13-.26.19-.32.13l-.38-.26c-.13-.13-.19-.32-.32-.45-.06-.13-.19-.26-.32-.32l-.06-.13c0-.19-.19-.26-.32-.38-.26-.26-.45-.58-.58-.9l-.32-.58c-.19-.32-.26-.77-.32-1.15l.06-.13c.06-.13,0-.26,0-.38-.13-.32-.06-.39.26-.45l.13-.06.13-.7c.06-.19.19-.26.32-.32.06-.06.13-.06.19-.06.38-.06.45-.19.51-.58,0-.26,0-.45.26-.64.19,0,.45.06.7.06.32,0,.64,0,.9-.26h.13c.26-.06.45-.06.64-.06.32,0,.58-.06.77-.19.13-.13.32-.13.45-.06h1.28c.06-.06.13-.19.06-.26-.06-.32,0-.64.06-.96,0-.13.06-.32.13-.51l.06-.45c.06-.19.13-.32.32-.45.06-.06.06-.26.13-.32,0-.26.06-.45.13-.64.13-.26.19-.51.26-.77.13-.38.19-.77.38-1.15.06-.26.06-.45.06-.7.06,0,.06-.13.06-.26-.06-.13-.19-.26-.32-.38-.13,0-.32,0-.51-.06,0-.06,0-.13-.06-.26-.19-.06-.38.19-.64.06.13-.19.06-.38-.13-.51l-.58.26c-.06.06-.19.06-.32.06-.19-.06-.32,0-.51.06-.26.13-.51.13-.77.06h-.13c0,.13-.06.19-.06.32-.19.06-.32-.06-.45-.06-.13.13-.26.32-.51.26h-.13c-.13.19-.32.19-.45.32-.13.06-.26.13-.38.13-.26.06-.51.06-.64.26-.06.06-.13.06-.19.06-.06.06-.19.06-.26.13-.32.13-.64.06-.96-.06-.13,0-.26.06-.32.13-.13-.06-.19-.13-.32-.26l.13-.19c-.13-.19-.26-.13-.38-.19-.06.06-.13.13-.19.13-.13-.06-.26-.13-.32-.32,0-.13-.06-.19-.13-.26-.26,0-.51.06-.7.06l-.38-.51c-.19-.19-.38-.45-.38-.77-.19-.45-.06-.83,0-1.28-.13-.13-.26-.32-.26-.58v-.32c-.06-.06-.13-.19-.13-.32.19-.19.26-.45.06-.7-.06-.13-.06-.32-.06-.51l.19-.38c.32-.06.58-.19.83-.39.26-.19.51-.45.83-.58.06-.06.13-.13.26-.13.06.06.13,0,.19,0,.45-.26,1.03-.39,1.54-.51h.32c.13,0,.19-.13.32-.13.06-.06.19-.06.32-.06s.26,0,.32.06c.64,0,1.28-.19,1.86-.32h.19c.45-.13.9-.26,1.35-.51l.7-.13c.19,0,.38,0,.64.06h1.15c.19,0,.45,0,.7.06h1.15c.13,0,.26-.06.38-.13.45.06.58,0,.64-.45,0-.19.13-.26.19-.45,0-.19.06-.45.13-.64.06-.32.13-.58.13-.83.06-.19.06-.32.13-.45.06-.06.06-.13.06-.19,0-.51.26-.96.38-1.47l.38-1.92c.06-.26.19-.51.19-.77.26-.45.26-.9.51-1.28,0-.06.06-.19.13-.26.06-.13.13-.19.32-.26.32,0,.38-.19.26-.51v-.13c0-.13.06-.26.13-.39.19-.06.38,0,.45-.19.06-.06.13-.06.26-.13h.32c.13,0,.26,0,.38-.13.13-.06.19-.06.26-.06.13,0,.19,0,.26.06l.64.19.26.13c.06-.06.19-.13.32-.13h.64c.13,0,.19,0,.32.06l.45.19.58.19c.26.13.38.32.45.58l.19.51q0,.19.19.26v.26c.19.13.26.26.26.45-.06.19-.06.32-.06.45l.13.06c.26.06.32.19.13.38l-.13.19v.32l-.06.13c.13.26,0,.51-.13.7v.19c-.06.45-.26.9-.32,1.35-.06.06-.06.19-.06.26v.19c-.13.19-.19.38-.19.64,0,.19-.06.45-.13.64-.06.26-.13.58-.06.83l-.06.26c-.06.13-.06.26,0,.38h.19l.96.19c.38,0,.7.13,1.09.06h.13c.26.13.64.06.96.19.26.13.51.19.83.19.19.19.38.32.64.38.13.06.26.13.32.26.13.26.32.38.51.64-.13.26,0,.45.13.7l-.19.7-.06.13c-.13.19-.19.38-.19.64-.19.13-.38.26-.51.51-.06.13-.19.26-.38.32l-.19.06c0,.45-.26.7-.45,1.09-.32.19-.38.58-.64.83-.19.26-.51.39-.83.39-.19,0-.38,0-.58.13h-.13c-.32-.13-.64-.06-1.03-.06-.13,0-.32.06-.51,0-.13-.06-.19-.06-.32-.06-.19.06-.32.13-.51.13-.38-.06-.7.06-1.15.32-.19,0-.32,0-.45.19-.06.13-.13.26-.26.38v.13c-.26.13-.26.32-.26.58,0,.19-.06.45-.19.64-.06.13-.06.32-.26.38,0,.06,0,.13-.06.19-.06.32-.13.64-.26.9-.06.13-.13.26-.13.39-.06.32-.06.64-.13,1.02-.06.19-.13.38-.26.58-.06.13-.13.26-.13.38,0,.19-.13.26-.19.38-.13.13-.13.26.13.32.06.06.06.19,0,.19-.19.13-.19.32-.26.45v.32c.19.06.38.06.64.06.58-.06,1.22-.19,1.79-.32.13,0,.26-.06.32-.06.32-.06.58-.13.9-.06.19.06.45.06.7.06.19,0,.32,0,.45-.13,0-.06.06-.13.13-.19.19.19.38.32.64.38.13.06.26.19.26.38l.06.38.19.13c.13.13.19.26.19.38,0,.26.06.45.26.58l-.06.83.06.19.19.7c0,.13,0,.26-.13.32.06.19,0,.32-.13.38-.06.13-.06.39,0,.58l.06.13c-.06.06-.13.13-.13.26,0,.32-.19.58-.26.83-.06.06-.13.19-.19.19-.13.06-.26.13-.32.19-.13.06-.26.19-.32.32-.06.19-.13.32-.13.51-.06.19-.13.26-.32.32-.26.06-.45.06-.7.19-.06.06-.19,0-.26,0-.51,0-1.09,0-1.6.13h-.13c-.45,0-.9,0-1.35.13l-.58.13c-.13,0-.19.06-.26.06-.06.13-.13.19-.13.32,0,.06-.06.19.06.26.06.06.13.19.06.32,0,.26.06.45,0,.64.13.38.06.77.26,1.15.06.13.19.26.13.45.06.32.13.7.32.96.06.19.19.32.26.51.13.19.38.26.58.38.06,0,.19-.06.32-.06.58-.13,1.03-.45,1.54-.77.19-.19.45-.38.7-.51.06-.26.32-.32.45-.51.13-.26.38-.38.58-.51l.19-.19c.13-.13.26-.32.45-.38l.06-.19c.06-.19.19-.19.26-.26.13-.06.26-.06.26-.19,0-.06.06-.06.13-.13.13-.06.26-.19.32-.26l.19-.26.32-.19c.13,0,.19-.06.32-.19.19-.06.32-.13.38-.26.06-.13.26-.19.38-.32l.06-.13c.06-.19.26-.39.45-.51.32-.32.64-.77.77-1.22.06-.26.13-.51.32-.7.13-.13.19-.26.26-.38h.45c.19.06.38.06.51,0,.06,0,.19,0,.19.06.19.19.51.06.7.26h.26c.26-.06.58-.06.9-.13h.13l-.19.45c-.13.13-.13.19,0,.32.13.06.19.13.26.19l.06.13c.06.26.26.38.51.45l.19.26c.26.06.32.38.45.58.13.19.13.45.13.7.06.06.19.06.19.19,0,.26.13.51.19.77.06.06.06.13,0,.19-.13.19,0,.38.13.58.13.19.32.45.51.64ZM129.6,32.2h-.26c.13.06.13.13.26.13v-.13ZM133.06,26.12l-.06-.13c-.13,0-.13.13-.19.19-.19.06-.19.19-.13.38l.13.38c.06-.13.06-.32.19-.51.06-.06.06-.19.06-.32ZM135.05,26.31c0,.26-.06.45-.13.77.26-.19.26-.45.38-.64,0-.06.13-.19,0-.38l-.26.26ZM134.92,43.93l.13.06h.19c-.06-.06-.06-.13-.13-.13l-.19.06ZM135.18,42.07h-.13v.19c0,.06.06.13.19.06l-.06-.26ZM135.62,43.67c-.06-.13-.06-.19-.06-.32s-.13-.19-.13-.32c-.06-.13-.06-.26-.06-.38h-.19c0,.26-.06.45-.06.7.06.19,0,.26,0,.38.19.06.38,0,.51-.06ZM136.39,43.16l.06-.13c0-.06-.06-.13-.13-.13l-.13.06c0,.06,0,.13.06.19h.13ZM137.61,27.01c0,.13-.06.26-.06.32l-.32.26-.06.13h.45c.06-.06.06-.13.06-.19l-.06-.51ZM138.38,34.13c.13.13.26.26.38.26.06,0,.13.06.19,0,.19-.06.32-.06.51-.06.19.06.38.06.58,0l.13-.06-.45-.19c-.38-.06-.77-.06-1.15-.06-.06,0-.06.06-.19.13ZM186.05,52.39c-.19,0-.32-.13-.51-.32-.13-.13-.32-.38-.38-.64,0-.06-.06-.19-.13-.26l-.38-.13c.06-.13.13-.26,0-.45.06-.45-.19-.77-.26-1.15-.06-.26-.32-.51-.32-.9,0-.06-.06-.13-.13-.19-.06-.06-.13-.06-.26-.13.06-.32-.13-.51-.38-.64-.13-.06-.19-.19-.19-.32s-.06-.19-.13-.32c0-.13,0-.32-.13-.45-.06-.13,0-.32-.06-.45-.06-.19-.06-.38,0-.58,0-.13.06-.26.19-.32.13-.13.13-.19.19-.38.13-.45.26-.96.26-1.54-.06.06-.13.06-.19.06.06-.13.26-.26.19-.51-.13,0-.19-.06-.38-.06-.06.13-.26.13-.32.32-.13.26-.26.19-.38.06-.32.26-.64.51-.83.83-.06.13-.19.26-.32.32-.13.13-.19.19-.26.32-.06.19-.19.38-.45.45-.06.06-.06.19-.13.26-.26-.06-.32,0-.38.19,0,.06,0,.13-.06.19-.26.13-.38.38-.64.45l-.13.06c0,.19-.19.26-.32.19-.13.06-.19.19-.26.32-.19.13-.32.38-.58.38l-.32.32c-.26.38-.58.77-1.03,1.02-.06.06-.13.19-.26.26-.06.06-.13.19-.26.26l-.13.06c-.13.32-.38.51-.58.7-.06.13-.13.19-.19.26l-.13.06-.13-.06c.06-.06.06-.19.06-.26h-.19l-.06.13c0,.06-.06.13-.13.19v-.19c-.32.13-.45.38-.51.77-.13.13-.32.19-.51.26-.13,0-.26.06-.38.19-.13.06-.26.06-.38,0-.13-.06-.26,0-.38,0h-.13c0-.06,0-.13-.06-.19-.06,0-.19,0-.26.06-.13.19-.32.13-.51.06l-.32-.13c-.06,0-.13-.06-.26-.06-.26.06-.51-.13-.64-.26-.19-.19-.38-.39-.64-.45-.19-.13-.32-.32-.38-.51-.13-.19-.26-.45-.45-.64l-.19-.32c-.19-.32-.45-.58-.7-.83-.13-.13-.19-.26-.19-.32,0-.13,0-.19.06-.32l.13-.32c.19-.06.32,0,.45,0,.13-.13.06-.26.06-.38.13-.19.32-.26.51-.32.13-.06.26,0,.38-.13.06-.13,0-.26,0-.32l.26-.13c.32,0,.64-.06.9-.26.13-.06.26-.13.38-.26.06-.06.19-.13.26-.26.13-.13.19-.19.32-.26.06-.06.13-.06.13-.13.06-.19.26-.26.32-.39s.19-.26.32-.38c.26-.26.51-.58.7-.9.38-.51.77-.96,1.03-1.54l.32-.58c.32-.45.58-.96.9-1.41.13-.13.19-.32.26-.45l.32-.51.19-.26c.13-.32.32-.7.51-1.02.06-.06.13-.19.19-.32.06-.19.19-.32.26-.51s.19-.32.26-.45l.64-1.35.77-1.54c.13-.26.26-.45.32-.64.13-.26.38-.51.45-.83,0-.06.13-.19.19-.26l.58-.77.06-.13c.19-.51.51-.9.83-1.41l-.06-.19c-.19.26-.45.26-.64.32-.26.06-.58.19-.9.32-.19.06-.38.06-.64.19-.13.06-.32,0-.45,0-.19,0-.26.06-.38.13-.19.19-.45.19-.7.13-.26-.13-.38-.06-.58.06l-.19.19c-.19-.06-.32,0-.51,0s-.38.13-.58,0c-.32.19-.64.06-.9.26-.06.06-.19.06-.26.06l-.26-.38h.26c.06-.06.19-.13.19-.26h.19c.19,0,.38.06.64.06.13,0,.32,0,.45-.06.32-.06.64-.13.9-.13.13,0,.19,0,.26-.06l.58-.38c.26-.19.58-.26.9-.19.19,0,.32,0,.45-.06.19-.06.45-.13.7-.26.13-.06.19-.13.26-.32h-.32c-.19.06-.45.06-.58.19-.45.06-.83.26-1.22.38-.06,0-.19.06-.32.06-.45,0-.83.13-1.28.26-.13,0-.19-.06-.38-.13-.13.26-.32.32-.58.32-.26.06-.45.19-.7.32-.19.13-.32.19-.45.19s-.26-.13-.45-.06c-.06,0-.19-.06-.26-.13-.19-.32-.51-.64-.58-1.09-.06-.26-.19-.45-.32-.7l-.06-.13c-.06-.06-.19-.06-.19-.19-.06-.32-.26-.51-.32-.83,0-.19-.06-.32-.13-.51-.06-.19-.06-.32,0-.51.06-.13.06-.26.06-.38-.06-.38.13-.64.51-.64.38.06.7-.13,1.03-.38.06,0,.19-.06.26-.13l.58-.19c.13,0,.26.06.32-.06.06-.06.19-.06.32-.13l.06-.13c.13-.19.32-.26.51-.19.26.13.51,0,.64-.19.13-.13.26-.26.51-.26.06-.13.32-.13.32-.32.26.13.38.13.51.06.19-.13.32-.26.45-.45.19.06.38-.06.51.06l.13-.06c.13,0,.26-.06.38-.13.19-.32.26-.38.51-.32.26,0,.32-.26.51-.26.19-.06.38-.06.58-.19.19-.06.38-.13.58-.13.26,0,.45-.13.64-.26.13-.06.19-.06.26-.13.19,0,.38,0,.58-.13.13-.06.38-.06.58-.06s.45-.06.7-.19l.13-.06c.13.13.26.06.38,0,.51-.19.96-.45,1.41-.7l.19-.06c.19,0,.38-.06.58-.13l.45-.19c.19-.13.38-.26.64-.32.13,0,.19-.06.26-.13.19-.13.38-.19.58-.26l.13.06c.38.19.64.51.77.9l-.13.19.13.32c-.06.19-.06.26.06.32.13.06.19.06.32.06.13.06.19.19.19.38.06.26.13.45.26.64l.77,1.15c.06.06.06.13.06.19,0,.19.19.38.26.51s.19.26.19.45l.06.13c.32.26.38.58.32.96l.06.13h-.26c-.06.06-.06.19-.06.26-.06.06-.13.06-.13.13.19.13.45.32.32.51.26.13.26.19.13.32l-.13.06v.19h.26v.13c-.06.13-.19.26-.06.38l-.13.19-.19.06-.38.51c-.13.19-.32.39-.51.58-.13.19-.32.38-.51.58-.19.13-.26.26-.38.45-.13.13-.19.32-.32.45-.06.13-.19.19-.32.13-.13,0-.19.06-.26.19l.19.06-.06.13h-.19q-.13-.06-.26,0c.13.06.19,0,.26,0l.13.13c-.06.19-.13.26-.38.19v.26c0,.13-.06.19-.06.26-.06.06-.26.06-.26.26,0,.13-.13.26-.26.32l-.13.19c-.06.06-.19.06-.26,0-.13-.06-.19-.06-.32,0-.06.13.06.19.13.26-.19.06-.13.32-.32.45-.06-.06-.19-.06-.38-.06l.06.13c.06.13,0,.19-.06.26h-.19c-.06.06-.13.06-.13.13-.06.06-.13.19-.19.32-.06.06-.13.19-.26.26-.06.06-.13.13-.13.19-.06.06-.13.13-.13.19-.32.06-.45.26-.58.51-.13.19-.19.38-.26.58-.06.19-.19.38-.38.45-.26.06-.32.26-.32.45l-.32.32c.06.13.19.19.26.32h.77c.13-.13.38-.26.64-.32.13,0,.19-.06.26-.19.06-.19.26-.32.45-.32h.32c.13,0,.26,0,.38-.13,0-.13.13-.13.19-.13l.7.19c.19.13.45.32.7.32.06,0,.13,0,.19.06.19.06.32.26.51.26.26.06.38.13.58.19.26.06.45.26.64.38.13.06.19.13.32.13.19-.06.32.06.45.13.13.13.19.19.19.38.13.38.32.7.58.96.06.06.13.13.13.26s-.06.32,0,.45c-.19.19-.06.45-.06.64l.19.13c0,.13,0,.26-.06.39-.06.64-.13,1.35-.32,1.99l-.19.77c-.06.39-.06.77-.06,1.15l.06.26c.13,0,.19.06.32.06.45.06.9.13,1.35.13.26-.06.51,0,.77.06h.38c.26,0,.58,0,.83.19.06,0,.13.06.19,0,.26,0,.51.06.77.13.06,0,.19,0,.26-.06.06,0,.19,0,.26-.06.32,0,.58,0,.83.06.26.06.58,0,.9,0h.45c.26.06.51.06.77-.06.45-.13.96-.19,1.41-.26.13,0,.19-.06.26-.06.19-.06.32-.19.51-.06.32-.13.64-.13.9-.19.19,0,.32-.06.45-.19.19-.19.32-.19.51-.06.13.19.32.19.51.19.26.06.32.19.45.32l-.38-.06c-.06.06-.06.13-.06.19-.13,0-.19,0-.26.06-.06.06-.06.19,0,.26s.13.06.13.13c0,.13-.13.13-.19.19-.13-.06-.26-.06-.32-.13-.19.13-.13.26-.19.38-.13.13-.32.13-.38.38.32.06.38.19.32.38-.06.13-.06.26.06.32l.19.19c-.13.06-.26.13-.38.26.06.06.06.13.06.26-.38,0-.45.19-.51.38h-.19c-.13,0-.19,0-.19.13-.06.13-.13.19-.13.32.19.13.45.13.7.26l.7.19-.13.26v.26c0,.19-.13.32-.38.32h-.13c-.06.06-.13,0-.26,0l-.38-.19c-.06.13-.13.26-.26.38-.13,0-.13.13-.26.26.13,0,.13.06.19.06.13-.06.19-.06.32,0l.13-.06c.26-.19.45-.26.77-.13,0,.06.13.06.19.06l.13.39c-.06.06-.26.13-.26.32l-.13.13h-.26c-.06,0-.13,0-.19.06-.06.13-.26.06-.38.13-.19,0-.38,0-.64.06l-.13.06c-.06.06-.13.13-.19.06-.06-.06-.13,0-.19.06-.06.13-.26.19-.38.19-.19,0-.32,0-.51.06h-.26c-.45-.13-.96,0-1.41-.06-.32,0-.58,0-.9.06-.38.06-.77,0-1.15.06-.38.06-.83-.06-1.22-.19-.19,0-.32-.13-.51-.19h-.51c-.26-.06-.58-.06-.9,0-.13,0-.26,0-.38-.06-.06-.06-.19-.06-.26,0l-.13.06c-.19,0-.38-.13-.58.06-.19.06-.38.13-.58.13-.19.06-.38.13-.58.13-.19.06-.45.06-.64,0-.38-.13-.7-.06-1.09,0l-.19.19c-.13.13-.26.19-.38.19s-.26.06-.32.13l-.51.26c-.38,0-.77.13-1.09.13-.19,0-.32,0-.45-.06h-.13ZM171.57,50.72l.19-.06c-.13-.06-.19-.19-.19-.13v.19ZM180.73,27.98l.19-.06c.26-.13.58-.19.9-.38-.06-.06-.06-.13-.13-.13-.06-.06-.19-.06-.26,0-.26.06-.51.19-.7.32-.26.13-.51.13-.77.26-.06.06-.06.13-.13.13.13.13.26.13.32.06.13-.19.32-.19.58-.19ZM188.87,17.02l-.19-.13c-.13-.13-.26-.26-.58-.32-.06-.13-.19-.13-.26-.13-.26,0-.45,0-.64-.19h-.19c-.06-.06-.13-.06-.19-.06l-.06-.19-1.35-.13c-.13-.06-.26-.06-.38.06l-.13.06c-.13,0-.19-.06-.32-.06-.19-.06-.45-.06-.64,0-.13.06-.26.06-.38,0-.06-.06-.13-.06-.13-.13l.06-.13c-.32-.06-.64-.26-.9-.51-.19-.13-.38-.19-.64-.06-.13-.19-.13-.45-.26-.64h-.19c0-.06,0-.19-.13-.26.06-.32-.13-.45-.13-.64,0-.06-.06-.13-.13-.19l-.13-.06c0-.26,0-.38.13-.51.06-.13.06-.26,0-.32-.13-.13-.26-.19-.32-.38l-.13-.06c-.13,0-.19-.13-.26-.19-.06-.13-.06-.26,0-.38l.19-.77c.06-.26,0-.51-.06-.7,0-.13,0-.19-.06-.32,0-.06,0-.19.13-.19.13-.06.13-.19.13-.32,0-.19,0-.45.13-.58l.06-.13c.06-.51.13-1.03.13-1.54,0-.26.06-.32.32-.45.06-.26.13-.51.26-.77l.38-.06c.19,0,.38.06.58.13.19.06.38.13.64.26.38-.06.64.13.96.13.13.06.26.06.32.26.06.13.26.19.45.38.26-.13.45.13.77.13h.13c.13.06.26.19.45.13.32.26.64.32.96.45.32.06.58.19.9.26.13,0,.32,0,.45.06l.06-.19.64.38.19.06c.26.06.38.19.51.39l.19.19c.19.19.32.38.38.7,0,.32.06.7.26.96.06.06.13.13.13.19,0,.38.13.7.19,1.09.06.06.06.13.06.19s-.06.13,0,.19c.13.13.06.32,0,.45,0,.13,0,.26-.06.38l-.19.32c.06.06.13.19.13.32.06.06.06.19.06.32s-.06.26-.13.32l-.19.06c-.19.13-.26.26-.26.45l-.06.45c-.32.06-.45.32-.51.64-.06.19-.13.38-.26.64.06.06.13.13.19.26-.06.13-.19.32-.06.51-.06.13-.19.13-.32.06-.19-.06-.51-.06-.7-.13ZM180.86,43.54c-.06,0-.13,0-.19.06-.13,0-.13.06-.06.13l.26-.19ZM181.12,43.42l.19-.13c-.06-.06-.13-.06-.26,0l.06.13ZM194.19,50.53c.13,0,.32,0,.38-.13.13-.06.26-.13.38-.06.26.06.51.06.77,0h.26c.19.06.38,0,.64-.06-.26-.13-.58-.32-.9-.32-.19,0-.38-.13-.51-.06-.19,0-.38-.06-.58-.13-.13,0-.32.06-.45,0-.32-.06-.64.06-.96.06-.06,0-.19.06-.19.19.19.06.45,0,.64.19-.13.19-.19.19-.19.13-.19,0-.38.06-.51.19h1.22ZM198.74,50.4c.58,0,1.09-.13,1.6-.19.06,0,.13-.06.06-.13h-.13l-.13.06c-.26-.19-.51-.19-1.28-.19l-.06-.19c-.06,0-.13,0-.19.06v.19h-.32c-.19.13-.32.13-.32.06-.06-.13.13-.26.26-.19.13-.06.13-.13.13-.26l.13-.06c.06-.06.06-.13,0-.19l-.13.26c-.19.06-.38.13-.58.26,0,.19-.19.26-.38.38.06.13.19.13.32.13h1.03ZM200.08,49.76l-.06-.13c-.19-.13-.45-.13-.64,0l.06.19c.19,0,.32,0,.45.06.06,0,.13-.06.19-.13ZM247.57,22.72c-.06.13-.19.26-.26.32.13.32.06.51-.13.64-.19.13-.26.32-.32.51l.19.26v.32c-.06.06-.06.13-.13.26.06.19.45.19.51.51-.13.06-.19.13-.26.26-.06.19-.06.32,0,.32h-.38c-.06.06,0,.13.06.13.06.13.32.13.38.26-.06,0-.06.06-.26.13q0,.32-.19.45h-.26c-.45.06-.77.13-1.15.38-.06,0-.13,0-.19.06l-.13.06c-.51.19-.7.32-1.15.39-.06.06-.06.32-.19.38-.19.06-.26.13-.38.19-.06.06-.13.19-.19.39-.06.06-.19.13-.32.19-.06.06-.06.13-.06.26-.13,0-.19.06-.26.19l-.26.06c0,.13.06.19.06.26l-.13.26c-.19,0-.26-.06-.32.06,0,.19.13.19.19.19.19-.06.26-.19.19-.32.13.13.19.32.26.45,0,.13.06.26.13.32.13.06.32.26.32.39.26.19.32.32.38.58.13.19.32.39.45.51.06.19,0,.26.06.32.06.13.13.19.19.26v.13c.06.19.06.26.13.32.19.13.26.19.26.38.26.26.19.58.32.83.06.13.06.26.19.32.13,0,.13.06.19.13.06.38.26.64.45.96.06.06.06.13.19.19.13.58.32,1.02.51,1.54.06.06.06.13.19.19.13.19.13.38.06.58,0,.13,0,.32.06.45.13.26.06.45-.06.7-.19.13-.26.26-.26.45-.06.26-.19.38-.45.51,0,.06.06.19,0,.32,0,.26-.06.32-.38.38-.13.13-.13.19-.13.38l-.19.19c-.38,0-.77-.06-1.15.19l-.19-.13c-.13-.13-.38-.19-.58-.19h-.58c-.13,0-.32,0-.51.13-.13.06-.26.06-.38,0-.13-.06-.32-.06-.45,0-.13.06-.26,0-.38-.06-.32-.06-.58-.19-.96-.32-.06-.06-.19-.06-.26-.06-.26,0-.58-.06-.83-.13-.32-.06-.58-.13-.77-.32-.19-.26-.38-.26-.58-.19-.06.13-.19.19-.45.13.38-.26.7-.45.96-.83-.19-.13-.32,0-.51-.06l-.13-.19c.06-.06.19-.19.19-.26.26-.45.26-.9,0-1.22-.06-.19-.13-.51-.13-.7v-.58c-.06-.19-.13-.32-.26-.51-.13-.38-.26-.77-.45-1.15-.06-.32-.26-.58-.45-.83-.06-.19-.06-.38-.13-.51-.13-.06-.13-.32-.26-.45-.19-.26-.32-.58-.51-.83-.06-.13-.13-.26-.32-.26-.13.06-.26.19-.38.19l-.45.19h-.45v.26l-.32.19c-.32.13-.77.19-1.09.38-.64.32-1.35.39-2.05.51-.38.13-.77.06-1.22.13-.58.06-1.15.19-1.67.32l-1.28.39c-.13.06-.32.19-.45.06-.06.26-.06.38-.32.38-.06-.06-.13,0-.26.13-.19.32-.51.45-.83.51-.32.13-.7.19-.96.38-.38.26-.77.38-1.22.38-.06-.06-.19,0-.32.06-.19.06-.38.06-.58,0-.32-.06-.58,0-.83.06-.45-.06-.7-.06-1.03-.06l-.9-.19-.13-.13c-.06-.13-.13-.13-.13-.19-.13,0-.19,0-.19.06-.06.26-.26.26-.51.19-.26-.06-.45-.26-.64-.38-.26-.26-.38-.51-.45-.77-.06-.26-.19-.51-.45-.7-.13-.19-.38-.45-.7-.64,0-.06,0-.19-.06-.26l-.13-.26c0-.06.06-.13.19-.19.13-.26-.06-.58-.06-.83-.06-.32-.06-.51-.06-.64v-.26l.77-.45.19-.06c.19-.38.51-.45.83-.64.06-.06.19-.06.26-.13.06-.13.19-.19.38-.13h.13c.19-.06.38-.26.64-.45l-.06-.13c.06-.13.13-.13.26-.19.13,0,.19,0,.26-.19l.13-.06c.32-.13.77-.38,1.03-.64l.13-.06c.26-.06.38-.19.58-.32.13-.06.38-.19.51-.32.32-.19.64-.32.9-.51.06-.06.13-.19.26-.19.26,0,.45-.06.64-.13l.96-.38c0-.06,0-.19.06-.26l.83-.26.19-.13c.06-.06.13-.06.26-.06.32-.06.58-.26.96-.32.06,0,.13,0,.19-.06.06-.13.26-.19.38-.26.06-.06.13-.06.19-.06.45.06.7-.06,1.09-.19.83-.32,1.67-.7,2.56-1.03,0-.19-.06-.45-.13-.58-.06-.19-.13-.32-.19-.58-.13-.26-.32-.51-.38-.9-.06-.13-.19-.26-.26-.45,0-.06-.06-.06-.13-.13v-.13l-.19-.06c-.06-.06-.13,0-.19,0-.19,0-.38,0-.64.06-.06,0-.19,0-.26.06-.19.06-.45.32-.77.32s-.58.13-.77.19c-.38.06-.64.19-.96.32-.06.06-.13.19-.13.26-.06.06-.06.13-.13.13l-1.35.77-.13-.06.26-.19c.06-.13.26-.19.32-.26.06,0,.13-.06.06-.13-.26,0-.45.13-.64.19-.06,0-.19.06-.38.06-.26,0-.51.13-.77.38l-.19.19c-.13-.06-.19-.13-.38-.13-.06,0-.19-.06-.32-.06l-.26.19c-.26-.13-.32-.32-.38-.45-.06-.26-.13-.38-.19-.58l.06-.13c-.06-.13-.13-.13-.19-.13-.26-.19-.26-.45-.38-.77-.06-.32-.13-.7-.26-.96-.06-.06,0-.13,0-.19,0-.26,0-.38-.06-.51,0-.19-.13-.38-.13-.58-.06-.26.13-.51.19-.83.26-.13.32-.51.51-.7.13-.06.19-.19.26-.19.19-.19.32-.26.38-.45,0-.06.06-.06.19-.13.13.06.19.06.32,0,.45-.38.9-.64,1.41-.9.26-.19.58-.32.83-.45.45-.19.77-.45,1.15-.64.58-.26,1.03-.58,1.67-.77.38-.06.64-.26.96-.51.13-.06.13-.19.13-.26-.06-.38-.13-.64-.26-.9-.06-.51-.19-.96-.26-1.41-.06-.32-.19-.64-.32-.96-.13-.13-.19-.19-.13-.32,0-.06,0-.13-.06-.26-.13-.13-.19-.38-.32-.58v-.32c0-.58,0-1.09-.06-1.67,0-.13-.06-.26,0-.38,0-.19-.06-.32-.13-.58-.19-.32-.19-.38-.13-.83.26-.06.45-.13.64-.26.26-.06.38,0,.51.13.13.13.19.19.38.26.13.13.26.19.45.13.26-.13.45,0,.64.13.13.06.32.13.45.13.13.06.26.13.32.19.06,0,.13.06.26.06.26.06.51.19.83.32.19.06.38,0,.64-.06.19.13.38.13.58,0,.19.06.26.13.38.19.19.06.32.19.32.45h.26c.26-.13.51,0,1.03.06l.13.06,1.03.45c.06.13.06.19,0,.32l-.13-.06-.06-.13h-.13c-.13,0-.19,0-.32-.13-.06-.13-.26-.13-.45-.13l-.13.06c.06.19.19.19.38.26.19.13.38.19.51.38l.13.06c0,.38.19.38.38.38.13.13.19.32.38.51.06.19.13.32.06.45s0,.32,0,.38c.13.32.13.64.26.9.06.13.06.26.06.45s.13.32.32.39c.06,0,.13,0,.26.06.06-.19.26-.32.51-.32.32-.13.7-.19.96-.32.13-.06.32-.06.45-.13.19-.13.45-.06.7,0l.38.13c.19.13.32.19.45.32.06.06.13.13.26.19.19.06.26.32.32.45.06.06,0,.13,0,.19,0,.13,0,.19.06.26.19.26.19.51.26.83.06.06.06.13.06.19.26.26.19.64,0,.9,0,.13-.06.19,0,.39-.13.26,0,.38.06.51l-.32,1.09v.26c0,.26,0,.51-.06.7v.64c-.19.06-.45.26-.51.51l-.06.13c-.19.06-.32.19-.51.32-.26.06-.45.19-.51.38-.13.13-.26.19-.38.19-.19,0-.45.19-.64.26-.13,0-.26.19-.19.32.06.58.13,1.09.26,1.67,0,.19.06.19.32.19.38,0,.77-.13,1.15-.19.38-.13.64-.19,1.03-.26.13,0,.26-.06.45-.06h.19c.26-.13.64-.26.9-.32.45-.19.83-.32,1.22-.45.13-.06.26-.06.38-.19.06,0,.13-.06.32-.13,0-.13.06-.19.13-.26h.19q.06.26.19.26t.51-.13c.06,0,.06-.13.19-.13.13-.06.19-.13.19-.26,0-.06.13-.13.13-.19,0-.13-.06-.19-.06-.32.26,0,.38.13.58.39.06.13.19.26.32.32.06,0,.13.06.13.13.06.26.13.39.26.58.06.13,0,.19-.13.32s-.26.19-.38.26v.45c.26.06.38.38.7.38-.06.32-.13.32-.13.38,0,.13.13.13.32.13ZM238.21,50.66c0,.19.06.26.06.38v.13c-.13.32,0,.58-.06.83l-.19.06c-.13,0-.19,0-.19.13s.13.19.26.26c-.38.19-.38.32-.32.45-.06-.13-.13-.13-.19-.13-.06.13-.06.19-.06.26-.32,0-.38-.06-.45-.26l-.06-.13h-.26c0,.06,0,.13-.06.26-.19-.13-.26-.13-.32-.13-.13,0-.19-.06-.32-.06h-.32c-.06.06-.13.06-.19.06-.26-.13-.51,0-.83.26-.32-.13-.51-.26-.77-.26-.06.26,0,.32.13.38l-.13.06c-.06,0-.19-.13-.26-.13l-.13.06h-.77c-.19-.13-.51-.19-.64-.38-.13-.13-.19-.19-.38-.19-.13-.26-.45-.32-.7-.32h-.26c-.13-.19-.38-.26-.51-.45l-.26-.06c-.13,0-.26-.06-.38-.13-.06-.13-.64-.45-.83-.45-.32-.06-.51-.13-.64-.26-.19-.13-.38-.13-.58-.26-.06,0-.19,0-.32.13-.26.19-.58.26-.96.26l-.13.06c-.19.06-.45,0-.51-.19-.06-.13-.19-.13-.19-.26-.13.13-.13.19-.13.26-.06,0-.26.06-.38.13-.13-.06-.26-.13-.32-.38-.06-.32-.26-.45-.51-.45-.06,0-.19.06-.38.06-.06.06-.13,0-.19-.06.06-.06.13-.06.13-.13.19-.13.26-.26.06-.38-.06-.06-.06-.19,0-.45-.13.13-.26.13-.32.19l-.19-.32c-.19,0-.26-.06-.38-.06l.06-.19c0-.19,0-.38-.13-.45-.06-.06-.06-.13-.06-.19-.06-.06-.06-.19-.13-.26v-.13c0-.06.06-.13,0-.19-.06-.19-.13-.51-.38-.7-.13-.13-.13-.26-.06-.51-.13,0-.19-.06-.26-.06v-.26l.06-.51-.06-.13c.06-.19-.06-.51,0-.7,0-.26.13-.51.26-.7-.06-.06-.13-.19-.06-.32,0-.38.19-.64.19-.96,0-.13.19-.26.38-.26l.13-.06.06-.13c.32-.32.58-.51,1.03-.45h.13c.19,0,.32,0,.45.13.19-.06.32-.06.45-.13.19,0,.45-.13.58-.38l.26-.26c.32,0,.51,0,.7.19.06.06.13.06.26.06.38,0,.58.19.96.64.45.26.77.45,1.15.58.26.13.38.32.58.51.19.13.38.13.51.26.32,0,.38.13.45.38-.06-.06-.13-.13-.26-.13s-.19,0-.32.13c.13.13.26.19.45.26.06.06.13.06.26.06.06,0,.13-.06.19-.13-.06-.13-.19-.13-.32-.26.26,0,.58,0,.77.19l.13.06c.06-.13,0-.19-.06-.19-.06-.06-.19-.06-.19-.26h.13c.13.19.32.26.51.32.32.19.58.51.96.64.19.26.58.38.83.64.51.38,1.09.77,1.54,1.15l1.92,1.67c.19.19.32.45.58.7.19.32.45.64.64,1.02.13.32.19.58.13.9ZM229.88,44.25l-.13.06c.19.26.26.38.58.38-.13-.26-.32-.38-.45-.45ZM231.23,44.89c.06,0,.13-.06.13-.13l-.06-.13-.19-.06c-.13,0-.19.06-.38.13.19.13.26.19.38.19h.13ZM231.42,44.12q.32.32.45.32c0-.19-.13-.26-.26-.32h-.19ZM235.07,47.71c-.26-.13-.38-.38-.7-.58-.06,0-.13-.06-.13-.13-.32-.32-.7-.64-1.09-.83-.19-.13-.32-.26-.45-.45-.13-.06-.26-.13-.51-.13.19.26.26.32.38.38.13.06.26.13.38.26.19.13.38.32.51.45.38.26.77.58,1.09.9.13.06.19.19.32.26,0,.06.13.06.19,0v-.13ZM235.58,47.26c-.19-.38-.58-.58-.83-.83h-.13c.26.32.58.58.83.83h.13ZM238.02,34.96l.06.13c.06.06.06.19.06.32v.13c.06.13.13.13.26.19,0-.38-.13-.64-.38-.83-.06-.06-.06-.13,0-.19l.13-.06c0-.06.06-.19.13-.26-.06-.06-.13-.13-.13-.19.06,0,.19,0,.19-.19-.13-.06-.19-.13-.32-.13l-.32.13-.13-.06c-.06-.19-.26-.32-.26-.51,0-.06-.13-.13-.13-.19-.26-.26-.38-.51-.58-.77l.06-.13c.06.13.13.19.19.26,0-.13,0-.26-.06-.38-.06-.06-.32-.13-.32-.32,0-.06-.13-.06-.19-.13-.06,0-.13,0-.19.06h-.38c-.06.19-.06.32-.13.39.13.26.19.45.45.51.19.13.13.32.26.51l.19.32c.13.06.13.13.19.19.45,1.03.96,1.92,1.47,2.95l.06.13v-.38l-.13-.32c-.32-.26-.19-.96-.19-1.15h.13ZM236.23,47.77l-.19-.13.06.13h.13ZM237.44,32.01l-.06-.26c-.06,0-.26-.06-.32.06l.38.19ZM237.89,34.57l-.06-.13c-.06,0-.13-.06-.13-.13l.19.06v.19ZM239.69,37.27c.13,0,.26,0,.32-.13l-.06-.13-.13-.06c.19,0,.19-.06.13-.19,0-.19-.13-.32-.26-.38l-.45.19c.06.19.06.32.19.45l.26.26ZM251.41,12.53c.19.32.06.58-.13.83l-.26.58c-.06.26-.19.51-.19.77l-.13.19h-.45c-.06,0-.13.06-.19.13-.06.06,0,.26.06.45l-.19.13c-.19-.06-.32-.26-.45-.38-.06.06-.19.13-.32.13s-.32-.13-.51-.06c-.06.06-.13,0-.19-.13-.13-.06-.19-.19-.26-.26-.06-.13-.19-.26-.32-.32-.19.06-.32.26-.58.19-.06-.13-.13-.19-.13-.32-.06-.38-.26-.77-.45-1.09,0-.06-.06-.13-.13-.13-.32-.13-.32-.19-.32-.45v-.13c0-.06-.06-.13-.13-.19-.19-.19-.26-.45-.32-.7-.06-.06-.06-.19-.13-.26l-.32-.96-.06-.38c-.06-.06-.06-.19-.06-.26,0-.19-.06-.38-.19-.58v-.13c-.13-.06-.13-.19-.06-.32.13-.13.26-.19.45-.13l.26-.13.13-.13c-.13-.26.13-.45.19-.7.19-.13.32-.32.51-.32.13-.06.26-.06.45-.06.13-.06.26-.06.38-.06.13-.06.26-.06.38,0h.26c.26,0,.51.06.77.13.32.19.64.32.96.45.19,0,.32.06.51,0,.06-.06.19-.06.32-.06l.19.19.13.06c0,.19.19.26.26.51-.06.06-.13.13-.19.26s-.06.26,0,.32c.06.13.06.26.06.32,0,.26.06.45.13.64.19.38.26.83.26,1.28,0,.19,0,.38-.06.58-.06.13-.06.32.06.51ZM256.79,7.73v.26l-.13.26c0,.19-.06.38,0,.58v.32c0,.13,0,.19-.06.32-.06.19-.06.45-.13.64,0,.13-.06.19-.26.13-.13.06-.19.06-.19.13-.06.26-.19.32-.32.51-.06.06-.06.19-.13.26-.13.06-.19-.06-.26-.13-.06-.06-.19,0-.19.06-.06.06-.06.19-.19.19-.26-.13-.51-.26-.64-.58-.06-.13-.19-.19-.32-.26-.32-.13-.51-.38-.64-.64-.19-.38-.45-.7-.77-.96.06-.13,0-.26-.06-.32-.06-.19-.19-.32-.26-.51l-.06-.13-.45-.38c-.13-.13-.32-.26-.45-.51-.19-.06-.26-.26-.32-.45.13-.06.26-.13.32-.19.06-.13.06-.19.06-.26,0-.13,0-.19-.06-.32.13-.13.32-.19.51-.19.13-.13.13-.26.26-.26.06-.06.13-.13.13-.19l.19-.38h1.41c.13,0,.26.06.38.13l.51.19c.06,0,.13,0,.26.06l.83.38c.26.13.51.32.64.58.13.26.26.51.32.77,0,.32.06.58.06.9ZM319.93,26.18l-.06.37c0,.12-.06.18-.12.31v.24q0,.24-.31.3c-.12.37-.43.43-.49.67l-.73.24-.18.18c-.06.31-.31.49-.49.67-.06.06-.12.12-.18.24-.12,0-.24.06-.43.06-.12.06-.18.06-.31.06-.18.06-.43.06-.61.12-.12,0-.24.06-.31.18-.06.18-.24.3-.43.43h-.12c-.06.25-.31.37-.49.43-.37.06-.73.12-1.1.31l-.79.3c-.12,0-.18.06-.24.12-.31.3-.67.49-.98.61-.18.12-.37.24-.49.37-.12.12-.24.18-.43.18l-.61.18c-.18.06-.18.18-.24.31-.18.12-.49.06-.67.24-.12,0-.18,0-.24-.06-.12,0-.24-.06-.43,0-.06.06-.18,0-.31,0-.37-.06-.61-.18-.79-.49-.06-.06-.18-.18-.24-.18-.24-.06-.37-.25-.55-.43l-.49-.37-.49-.61c-.06-.12-.12-.24-.18-.3-.31-.37-.61-.61-.73-.92-.06-.12-.24-.12-.37-.18,0-.12,0-.24-.06-.31-.12-.24-.31-.49-.49-.73-.12-.12-.18-.24-.24-.43-.06-.18-.18-.3-.24-.49-.37-.43-.67-.86-.92-1.28-.31-.49-.67-.86-.98-1.34-.43-.43-.73-.92-1.1-1.34l-.37-.61c-.12-.24-.18-.55-.24-.79l-.12-.12c-.31-.37-.49-.79-.79-1.16l-.43-.73c-.06-.24-.18-.49-.37-.67-.24-.24-.37-.61-.55-.86l-.55-.79c-.18-.24-.31-.49-.49-.67-.18-.18-.43-.43-.55-.61-.12-.18-.24-.37-.49-.49l-.18-.18c-.24-.37-.55-.61-.92-.79-.24-.12-.49-.37-.79-.43-.06,0-.06-.06-.12-.12-.24-.18-.49-.43-.73-.67-.31-.18-.55-.43-.92-.37-.43,0-.92-.12-1.34-.18l-.61-.43c-.06-.06-.18-.18-.31-.18-.06,0-.06.12-.12.12-.24.24-.37.31-.67.43q.12.12.43.18v.31c0,.12-.06.24-.18.31-.12.12-.37.12-.37.37-.18.06-.31.12-.43.12-.31,0-.55.12-.79.18-.12.24-.31.43-.24.67q-.18.06-.31.18c-.12,0-.24,0-.43-.06l-.12.49h-.31c-.12.06-.24.06-.31.18s-.18.18-.24.24c-.06.25,0,.49-.06.73-.12.06-.31-.06-.49.12,0,.06-.12.06-.18,0-.12,0-.18-.06-.24-.12l-.18.06c0,.06-.06.12-.12.18.06.18.49.06.55.12l.24.43c-.24.49-.49.55-.79.61v.24c-.18.31-.37.49-.55.67-.24.24-.31.31-.61.31h-.18v.18c-.24.06-.43.12-.49.37l-.06.12c-.37.37-.37.43-.31.55-.24.18-.55.37-.79.49v.3l-.31.43c-.06.12-.18.24-.31.31-.12.12-.37.18-.43.43-.06.12-.18.24-.37.24s-.43.06-.55.25h-.18c.06-.37.49-.43.49-.79.37,0,.55-.24.86-.49.06-.06.06-.18,0-.3-.31,0-.55.12-.73.3-.18.18-.37.31-.61.18-.18.06-.24.18-.37.31-.06.06-.06.18,0,.24.18.24.12.43-.06.55l-.12.18h-.55c-.18.06-.24.06-.31.31.06.18,0,.24-.12.3-.12,0-.18.12-.24.18-.18.06-.24.24-.43.37-.24.06-.31.37-.37.61.06,0,.12.06.18,0,.24-.12.55-.06.86,0-.12,0-.24,0-.31.06l-.18.18c-.24.06-.43.18-.67.24-.43.06-.61.3-.73.67.18-.06.24-.06.43-.18v.18c-.18.24-.37.49-.55.61-.12.06-.18.12-.12.18h.18c.18-.18.37-.25.67-.37,0,.25-.18.37-.24.61-.31.12-.31.43-.49.67.06.06.06.18.12.24-.37.12-.37.24-.31.43l.37-.37c.18-.12.37-.24.49-.43,0,.12.12.25.12.43-.43.43-.73.92-1.22,1.34-.37.31-.67.67-.98.98l-.73.92c-.12.24-.37.37-.55.55-.06.06-.12.06-.18.06-.31,0-.43.24-.67.43.18,0,.24,0,.31.06-.37.12-.55.37-.61.67l-.06.18c.12,0,.18,0,.31.06-.12.06-.24.12-.31.18-.18.06-.37.06-.43.25-.43.06-.49.55-.79.73-.12.06-.18.18-.24.24-.12.31-.43.43-.67.61-.06.06-.24.12-.31.12-.12,0-.18,0-.24-.12-.18-.3-.31-.3-.61-.24l-1.16.37-.18.06c-.37.24-.79.31-1.22.31-.37,0-.73.18-1.16.24-.24.06-.43.06-.67-.06-.12,0-.31-.06-.43,0-.24,0-.55-.06-.79-.18-.18-.06-.43-.12-.61-.24-.12-.31-.43-.49-.43-.86v-.18c.24-.06.43-.18.55-.43.06-.24.18-.43.37-.55.37-.24.61-.67.79-.98.06-.12.12-.24.31-.3.24-.06.43-.12.55-.24.06-.06.12-.12.18-.12.43-.12.73-.37,1.04-.67.12-.12.31-.31.55-.31l.18-.61c.31-.18.49-.49.79-.79l.06-.12c.12-.18.24-.31.55-.49,0-.25.24-.25.49-.37.12-.06.24-.18.31-.3l.61-.79c.12-.12.37-.24.24-.49l.18-.06c.18,0,.18-.12.18-.31.12-.12.37-.24.61-.37.18-.06.37-.18.37-.43.24-.06.49-.31.61-.49l.37-.55c.18-.12.31-.3.49-.49.18-.18.37-.37.49-.61,0-.06.06-.12.12-.18l.24-.18c0-.06,0-.18-.06-.24,0-.18.06-.31.18-.49.24-.18.43-.37.61-.61.06,0,.12-.06.12-.18.06-.12.18-.24.37-.43.06,0,.18-.12.24-.24s.18-.31.31-.43c.12-.18.31-.31.61-.24l.12-.98c.31-.18.61-.3.98-.3.18,0,.24-.12.24-.31l-.12-.12.24-.43c0-.12.12-.12.24-.24.06-.12.12-.18.24-.31-.18-.06-.31-.06-.31-.24.18,0,.31,0,.49-.06,0-.06,0-.12-.06-.24-.06-.06-.06-.12-.06-.18.06-.06-.06-.31,0-.43.06-.06.12-.12.12-.18.06-.18.18-.31.37-.31s.24-.12.31-.24c.12-.31.37-.61.55-.86l.43-.73c.12-.12.12-.31.18-.49l.73-.98c.18-.18.31-.37.55-.49.12-.12.18-.18.24-.31.06-.24.24-.43.37-.61l.86-.98c.12-.12.18-.31.24-.43l.18-.31c.06-.12.06-.24.06-.37.06-.37.06-.79.18-1.16.12-.61.31-1.22.73-1.83.06-.49.24-.73.49-1.04.12-.24.37-.49.37-.86,0-.25.06-.43.18-.55.12-.24.24-.49.31-.73,0-.18.06-.3.12-.43,0-.18.12-.24.31-.31l-.06-.55c.37-.12.67-.43.73-.79.18-.12.24-.24.37-.24.31-.06.37-.3.31-.61h.67v.43c.06.3.18.55.31.86.12.18.24.31.55.24.06,0,.12.06.31,0,.37-.12.73,0,1.1-.06.49,0,.98.18,1.41.3.43.12.73.43,1.04.73l.67.73c.43.55.92,1.1,1.47,1.71l.55.67c.06.18.18.43.18.67,0,.18,0,.3.18.43l.06.12c.06.25,0,.43-.12.61-.06.18-.12.3-.06.55.12.12.31.24.49.3l1.47.79.24.06c.49.49,1.1.73,1.65,1.16l1.89,1.59c.37.43.92.86,1.34,1.28.43.3.79.67,1.1,1.04.43.55.92,1.1,1.47,1.53.06,0,.12.06.18.12.37.31.79.61,1.16.86.37.37.79.67,1.16.92.24.18.49.31.73.43l.98.49c.37,0,.55.25.92.37l.37.37c.18.12.37.24.49.43.06.18.24.24.37.37.24.18.49.3.67.49.24.24.55.37.86.49.73.31,1.28.61,1.89,1.16.55.37,1.16.61,1.71.86.31.12.67.24.98.3l.73.18,1.1.43.24.06c.37,0,.55.37.79.61.06,0,.06.06.12.12.12.12.18.24.18.37ZM305.01,50.74c-.06,0-.12.06-.24.18.06.24,0,.49,0,.79l-.18.43c-.06.06-.12.12-.18.24q-.12.18-.37.06c-.18.12-.31.31-.43.49-.06.06-.12.12-.24.12-.24,0-.37.18-.49.43-.24,0-.43.06-.61.18-.18.06-.43.18-.67,0h-.12c-.18.18-.43,0-.61.18-.18.06-.37.12-.55-.06-.18-.06-.31-.12-.61,0-.12.06-.31,0-.43-.06-.24-.12-.49-.24-.73-.24-.18,0-.37-.06-.49-.18-.24-.18-.55-.37-.73-.61-.12-.18-.24-.3-.49-.3-.18-.06-.37-.18-.49-.31-.12-.12-.18-.24-.24-.37.18-.18.37-.37.55-.49s.24-.18.18-.43c-.12-.18-.24-.43-.31-.61-.24-.49-.49-.92-.73-1.28l-.61-1.04c-.06-.12-.18-.18-.31-.18-.06,0-.18.06-.31.06l-.12.18c-.06.18-.18.31-.43.43-.37.12-.73.18-1.1.24l.31-.18.06-.18c0-.06-.12-.18-.18-.12-.18,0-.31.06-.43.12-.12.06-.31.12-.43.24l-.12.37-.31.24-.12-.12c.06-.12.12-.24.31-.18v-.12c-.12-.06-.18-.06-.24-.06l-.55.18c.06.06.12.12.18.24l-.12.06c-.24.12-.49.18-.73.24-.12.06-.31.06-.43.06s-.31,0-.37.06c-.24.12-.43.18-.67.24-.18.06-.31.06-.43.24,0,.06-.12.06-.18.18-.12,0-.18.12-.18.24.06.06.31,0,.43.12l-.12.06c-.18,0-.37.06-.55.12-.18.12-.24.06-.37-.18.18-.06.37-.18.37-.3h-.12c-.24.12-.49.12-.79.18-.37.12-.79.31-1.16.49-.18.06-.24.25-.37.43-.06.24-.18.37-.31.43-.12.12-.18.18-.31.24-.06.06-.18.18-.24.18-.37.18-.73.37-1.04.49-.31.12-.49.37-.79.61-.06.12-.18.24-.31.31-.18.06-.31.18-.43.37-.18.24-.37.49-.49.79-.12.12-.31.24-.43.24-.31.06-.49.31-.73.43-.18.12-.37.3-.61.3-.12,0-.24.12-.37.18-.06.06-.18.12-.24.12-.12,0-.18-.06-.31-.12-.12,0-.12-.06-.18-.06-.37-.37-.86-.43-1.34-.61-.06,0-.18,0-.24-.06-.67-.55-1.22-1.16-1.59-1.89l-.31-.12c-.18,0-.31-.12-.37-.24-.12-.24-.49-.37-.55-.61,0-.12-.06-.24-.12-.31-.06-.12-.06-.24-.18-.31-.18-.12-.24-.37-.37-.55-.18-.43-.43-.73-.79-1.1v-.24c0-.18-.06-.31-.12-.43-.12-.18-.18-.43-.24-.61.18-.37.31-.49.61-.55v-.18c-.06-.06-.06-.12-.06-.18.12-.06.24-.18.37-.18.31,0,.43-.24.67-.43l.18-.12.86-.43c.24,0,.49.06.73-.06.06,0,.12-.06.18,0,.12,0,.24,0,.37-.06.06-.06.12-.12.18-.06.18.12.37.12.55.06l.61-.18c.18-.06.31-.18.43-.31l.61-.61c.18-.18.24-.24.37-.24l.18-.18c.24-.24.43-.49.67-.67l.43-.37c.18-.24.37-.43.61-.55.06,0,.12-.12.18-.18.31-.31.55-.61.79-.92.12-.12.24-.24.31-.43l.18-.49c.18-.49.55-.86.79-1.28.18-.31.31-.61.43-.92l.18-.55c-.06-.12-.18-.06-.24,0-.12.12-.37.18-.55.18-.37.06-.67.06-.98.06-.43.24-.73.12-1.1-.18-.24.37-.67.43-.98.73h-.12c-.24,0-.37.06-.49.24,0,.06-.06.12-.12.12l-.55.12c-.12,0-.31.06-.43.18,0,.06-.06.12-.12.12-.24.06-.31.24-.43.37-.18.18-.31.31-.55.37l-.18.18c-.24.24-.49.18-.73.31-.18.06-.43-.06-.55-.18-.24-.12-.49-.24-.86-.24-.43-.06-.67-.31-.86-.67-.12-.24-.18-.49-.18-.79,0-.24,0-.49-.18-.79-.12-.12-.12-.24-.12-.43s0-.37-.06-.67c-.06-.24-.12-.55.12-.79.06-.06.12-.18.12-.31,0-.18.12-.37-.06-.55-.06-.3-.06-.61.06-.86.06-.18.12-.37.24-.61-.12-.12-.18-.31-.31-.43.06-.06.12-.12.18-.12.12-.06.18-.12.24-.18l.06-.24c.06-.18.24-.31.37-.31.31,0,.49-.18.73-.06.06,0,.12-.06.24-.06.24-.06.55-.12.79.06.18.18.49.12.67.12l.73-.12c.31,0,.67-.06.92-.18.43-.06.73-.06,1.04.06.31.12.61.06.92,0,.24-.12.49-.06.79-.18.31.12.61-.06.86-.06.06-.06.12-.06.18-.06.43.18.92-.06,1.28-.06.24-.06.43-.06.61,0l.24-.12c.24-.06.43-.12.61-.12.43.06.86-.12,1.28-.18.43-.06.98-.18,1.47-.18.24,0,.43-.06.67-.12.49-.12,1.04-.18,1.59-.3.31-.18.67-.24,1.04-.37.37-.06.67-.18.98-.18h.24c.12-.12.31-.06.43-.12.31,0,.55-.12.86-.18l.55-.06c.92-.12,1.83-.31,2.69-.55.43-.12.86-.18,1.22-.31.49-.12.98-.12,1.53-.24.43,0,.73,0,1.16.24.24.12.55.18.79,0,.24.18.49.31.79.49.18.43.55.61.79.92.12.12.24.37.31.49.12.24.24.55.49.79.18.12.18.37.18.61-.06.37-.12.67-.06,1.04.06.37-.12.79-.37,1.1-.12.3-.43.37-.67.43-.31.06-.55.18-.86.24-.24,0-.43.18-.49.37-.18.43-.49.55-.92.49-.24,0-.55,0-.79.12-.18.06-.37,0-.61-.06-.12,0-.24-.06-.31,0-.24.12-.49.06-.67-.06-.24-.18-.55-.18-.79-.31l-.12-.06h-1.04l-1.28-.12-1.47-.12c-.18,0-.24.06-.31.06-.24.12-.55.06-.73.18h-.12c-.31,0-.61.06-.98.12-.24.06-.55.06-.73.12-.31.06-.61.18-.92.12-.18-.06-.43-.06-.61.06-.06,0-.12-.06-.24-.06.18-.18.37-.12.49-.18.18-.06.37-.06.49-.12l.55-.18c-.12-.06-.18-.06-.18-.12l-.12-.18h-.12c-.06.24-.24.31-.49.31-.24.06-.49.24-.79.24-.24-.06-.55.06-.79.12-.18.06-.24.06-.49,0-.06.18-.24.18-.43.24-.18.06-.18.18-.06.24.24.24.49.61.86.73.31.06.49.31.61.49.18.24.43.55.61.73.31.24.49.55.73.79.06.06.12.12.12.24.06.24.18.43.37.61.06.06.06.18.12.24l.18.61c0,.12-.06.24-.18.37-.18.06-.24.24-.37.43-.12.18-.24.43-.55.49-.18.06-.31.24-.43.37-.18.12-.37.18-.61.24l-.43.06c-.06.06-.12.06-.12.12-.49,0-.79.37-1.16.61-.12.12-.24.24-.43.24-.24-.06-.37.06-.49.18-.06.06-.18.12-.24.06,0-.12-.06-.18-.06-.3-.12,0-.18.06-.24.06-.18.06-.24.18-.18.37l-.55.25-.18.24c-.06.06-.06.12,0,.18.06-.06.12-.06.18-.18.12.06.24.06.31.12.06.24.24.24.37.24.24,0,.55-.06.67-.31.37.12.61-.12.86-.37l.12.18c.55-.06.86-.31,1.22-.43l1.1-.37-.12-.12c.18-.24.49-.18.73-.24l.18.06q.18.06.37-.12c.12-.12.24-.12.37.12.18,0,.37,0,.61-.06v-.25c.31,0,.61-.18.92-.3-.06.06-.12.18-.12.3.06,0,.12,0,.24.06h.24c.18-.18.43-.18.67-.31,0-.43-.18-.86-.24-1.22-.12-.37-.24-.73-.43-1.16.12-.12.18-.31.24-.49.12-.3.37-.43.73-.37.12-.24.24-.43.43-.61.18,0,.43,0,.67.24.06.06.24.12.37.12s.31,0,.43-.06c.18,0,.31.06.49.12l.92.37c.18.06.31.18.49.24l.55.18c.43.06.79.31,1.22.43.43.18.86.43,1.22.67.24.18.43.37.67.61.31.37.49.73.61,1.22.06.12.06.31.06.43-.06.24-.06.49.06.67.18.25.31.49.43.67.18.37.37.67.55.98.12.12.18.24.12.37,0,.24.06.31.18.43.24.06.37.3.49.55.06.18.18.37.31.49.18.24.31.55.55.73.06,0,.12.12.12.24,0,.06.06.18.06.31s.12.24.06.43c-.06.06.06.18,0,.24-.06.06,0,.12.06.18ZM274.52,27.58c.12.06.18.06.24.06.06-.06.12-.18.12-.31-.06.06-.12.12-.18.12l-.18.12ZM275.01,27.34c.18-.18.37-.24.37-.43-.06-.06-.18-.06-.24-.06-.18,0-.18.12-.24.24l.12.24ZM277.39,25.08c-.06-.12-.24-.18-.31-.37.24,0,.43.06.67.24l-.37.12ZM278.19,24.41c.06-.06.12-.06.12-.12.06,0,.12,0,.18.12h-.31ZM281.3,23.73c.43-.12.86-.12,1.28-.18l1.96-.37c.49-.18,1.04-.31,1.53-.43.37-.12.73-.24,1.1-.31l.98-.18c.24-.06.31,0,.49,0-.06.06-.06.12-.12.12-.18,0-.37.06-.61.12l-.06.18.06.12c.31,0,.67-.06.98-.12l.18-.06c.06-.12.12-.18,0-.37h-.43c.43-.24.92-.37,1.34-.49.49-.12.98-.18,1.53-.37.18,0,.43,0,.61-.06.12,0,.18,0,.24-.06.18-.24.55-.18.73-.37.06-.06.24-.06.31-.06.31,0,.61.06.92,0,.06,0,.12,0,.18.06.31.18.67.12.98.24.06.06.24,0,.31,0l.86.86c.31.3.49.61.67.92.06.06.06.18.06.24.06.12.06.24.18.24.18.12.12.31.18.43.06.18,0,.43,0,.61.06.18,0,.31-.12.43l-.18.3c-.06.06-.06.24-.06.31,0,.12,0,.24-.06.31-.12.3-.18.73-.31,1.04-.06.12-.12.24-.24.37l-.18.31c-.06.24-.24.43-.43.55s-.31.18-.37.37l-.24.18c-.31,0-.61-.06-.86.12,0,.06-.12.06-.18.06h-1.1c-.06,0-.12-.06-.12-.12-.24-.18-.55-.25-.86-.31-.31-.06-.61-.12-.92-.12s-.61.06-.86.06l-1.77.37c-.12.06-.24.12-.37.12-.24.12-.49.18-.73.06-.12-.06-.31,0-.37.12-.06.18-.31.18-.49.18-.61-.06-1.16.12-1.77.18-.37.06-.67.37-.92.67,0,.06-.06.12-.12.18-.12.12-.24.31-.31.55-.18.3-.49.55-.98.43h-.24c-.31,0-.55-.12-.79-.3-.43-.24-.61-.61-.79-.98-.06-.18-.06-.37-.24-.43-.06-.06-.06-.18-.06-.24-.12-.37-.24-.73-.24-1.16-.24-.24-.37-.55-.31-.92.06-.3,0-.61-.06-1.04-.06-.12-.06-.24,0-.43.06-.12.06-.25,0-.43,0-.06-.06-.18-.06-.31-.06-.3-.12-.61-.31-.86v-.12c.24-.06.49-.18.79-.12.24.06.55,0,.79-.12ZM281.24,22.33h.18l-.12.12-.06-.12ZM281.98,21.47l.06-.12c0-.06.06-.12.24-.06,0,.12-.06.12-.12.18h-.18ZM282.46,20.98h-.24c.12-.24.24-.37.37-.55h.12c.06,0,.18.06.24.12-.18.12-.37.12-.37.37l-.12.06ZM282.83,19.76l-.06-.12c-.06,0-.12.06-.06.18l.12-.06ZM286.31,32.78c-.06.06-.12.12-.12.18.55,0,1.1,0,1.65-.12.61-.12,1.16-.31,1.71-.37.37-.06.67-.18.98-.31l.06-.12c-.06-.06-.12-.06-.24-.18-.31.24-.61.24-.92.24-.18,0-.31-.06-.43.06l-.18.06c-.37.06-.73.12-1.1.12h-.37c-.31.12-.55.18-.79.12-.12,0-.18.06-.37.12.06.06.12.12.12.18ZM287.6,36.32c.24.06.37,0,.55,0l-.06-.12c0-.06-.06-.06-.12-.12-.12.06-.24.06-.31.12l-.06.12ZM290.1,35.83q-.24-.12-.31-.06c-.12.12-.06.18,0,.18l.31-.12ZM291.51,31.8v-.12c-.12,0-.18.06-.18.18s.18.18.37.12c.12,0,.12-.06.12-.18,0-.06-.18-.06-.18,0h-.12ZM291.88,31.56l-.12-.06c-.12,0-.18.06-.18.12.06.06.12.06.24.06l.06-.12ZM292.42,31.43c-.18.06-.31.06-.43.12.06.24.18.24.43.12v-.24ZM170.56,61.17h1.08l2.03,4.87,2.12-4.87h1.08l1.29,7.66h-1.51l-.69-4.72-2.05,4.72h-.51l-1.96-4.72-.78,4.72h-1.51l1.42-7.66ZM194.22,65.01c0,2.33-1.68,3.99-4.09,3.99s-4.09-1.66-4.09-3.99,1.68-4.01,4.09-4.01,4.09,1.68,4.09,4.01ZM192.68,65.01c0-1.55-1.06-2.65-2.55-2.65s-2.55,1.1-2.55,2.65,1.06,2.64,2.55,2.64,2.55-1.09,2.55-2.64ZM206.73,62.46h-2.75v1.71h2.64v1.29h-2.64v2.09h2.75v1.29h-4.25v-7.66h4.25v1.29ZM218.95,64.73h3.51v.09c0,.52-.07,2.12-1.12,3.17-.79.79-1.77,1.01-2.72,1.01s-1.94-.19-2.78-1.03c-.26-.26-1.14-1.23-1.14-2.95,0-1.48.67-2.39,1.12-2.85.57-.59,1.54-1.17,3.02-1.17.57,0,1.18.09,1.77.4.49.25,1.03.71,1.44,1.4l-1.3.7c-.26-.52-.65-.78-.9-.91-.32-.16-.72-.24-1.08-.24-.61,0-1.3.22-1.77.68-.44.42-.77,1.16-.77,2.02,0,1.02.44,1.63.76,1.94.34.33.88.65,1.7.65.51,0,1.08-.14,1.5-.46.3-.23.6-.62.72-1.17h-1.97v-1.29ZM232.23,61.17v7.66h-1.49v-7.66h1.49ZM242.36,64.41l2.81-3.24h1.88l-3.24,3.54,3.41,4.12h-1.97l-2.72-3.43-.17.17v3.26h-1.49v-7.66h1.49v3.24ZM259.6,67.22h-3.09l-.68,1.61h-1.62l3.29-7.66h1.17l3.2,7.66h-1.61l-.68-1.61ZM259.16,66l-1.09-2.75-1.09,2.75h2.18ZM271.16,61.17v7.66h-1.49v-7.66h1.49ZM68.52,3.14c-.14,0-6.53.08-14.05,3.56-7.51,3.47-16.13,10.36-20.74,23.99-9.78,28.94-16.8,31.57-22.6,31.73H2.29c-1.22,0-2.22,1-2.22,2.22s1,2.21,2.22,2.21h26.89c.14,0,6.53-.07,14.05-3.55s16.14-10.37,20.75-23.99c9.78-28.95,16.79-31.57,22.6-31.73h8.84c1.22,0,2.22-1,2.22-2.22s-1-2.22-2.22-2.22h-26.9Z"/>
  <path class="cls-1" d="M97.93,36.5c0-9.09-4.02-17.65-11.02-23.47-1.06-.88-2.64-.74-3.52.32-.88,1.06-.74,2.64.32,3.52,5.86,4.87,9.22,12.03,9.22,19.63,0,14.06-11.44,25.5-25.5,25.5h-13.36c-1.38,0-2.5,1.12-2.5,2.5s1.12,2.5,2.5,2.5h13.36c16.82,0,30.5-13.68,30.5-30.5Z"/>
</svg>